<svg width="210" height="36" viewBox="0 0 210 36" fill="none" xmlns="http://www.w3.org/2000/svg">
<g clip-path="url(#clip0_2200_58157)">
<path fill-rule="evenodd" clip-rule="evenodd" d="M10.1068 0.733597C15.3235 -0.244532 20.6765 -0.244532 25.8932 0.733597C30.6517 1.62582 34.3742 5.34826 35.2664 10.1068C36.2445 15.3235 36.2445 20.6765 35.2664 25.8932C34.3742 30.6517 30.6517 34.3742 25.8932 35.2664C20.6765 36.2445 15.3235 36.2445 10.1068 35.2664C5.34826 34.3742 1.62582 30.6517 0.733597 25.8932C-0.244532 20.6765 -0.244532 15.3235 0.733597 10.1068C1.62582 5.34826 5.34826 1.62582 10.1068 0.733597Z" fill="url(#paint0_linear_2200_58157)"/>
<path d="M14 20C13.5624 20 13.8957 20 13 20C11.8954 20 11 20.8954 11 22V25.5C11 26.3284 11.6716 27 12.5 27C13.3284 27 14 26.3284 14 25.5V14.5C14 11.4624 16.4624 9 19.5 9C22.5376 9 25 11.4624 25 14.5C25 17.5376 22.5376 20 19.5 20C18.2685 20 18.4352 20 18 20" stroke="white" stroke-width="2" stroke-linecap="round"/>
</g>
<path d="M46.8912 12.8492C45.544 12.8492 44.3466 13.324 43.4296 14.1364L42.931 13.1546H41V27.8474H43.92V23.3672C44.7572 23.9464 45.7724 24.2764 46.8908 24.2764C50.1436 24.2764 52.549 21.8236 52.549 18.5544C52.549 15.2816 50.1436 12.8488 46.8908 12.8488L46.8912 12.8492ZM46.6526 21.5142C44.9562 21.5142 43.709 20.247 43.709 18.5542C43.709 16.8614 44.9562 15.5942 46.6526 15.5942C48.349 15.5942 49.5926 16.8578 49.5926 18.5542C49.5926 20.2506 48.349 21.5142 46.6526 21.5142Z" fill="#212121"/>
<path d="M60.1638 13.0946C58.7766 13.0946 57.8008 13.5228 57.0318 14.4778L56.5128 13.1546H54.6402V23.9546H57.5602V18.3438C57.5602 16.5782 58.211 15.8492 59.8566 15.8492H61.1238V13.0946H60.1638Z" fill="#212121"/>
<path d="M73.2638 18.5164C73.2638 15.4054 70.9892 12.849 67.6728 12.849C64.4674 12.849 62.071 15.3018 62.071 18.5546C62.071 21.791 64.4838 24.26 67.6728 24.26C70.18 24.26 72.2472 22.76 73.0326 20.4054H69.9636C69.52 21.1782 68.6872 21.6582 67.6726 21.6582C66.2562 21.6582 65.2872 20.8466 65.0334 19.3726H73.2072C73.2436 19.0872 73.2636 18.8018 73.2636 18.5164H73.2638ZM67.6726 15.3418C68.983 15.3418 69.9312 16.0578 70.344 17.3782H65.1104C65.4496 16.1 66.3726 15.3418 67.6726 15.3418Z" fill="#212121"/>
<path d="M79.1766 24.26C81.9038 24.26 83.7056 22.8254 83.7056 20.6218C83.7056 17.9908 81.4564 17.618 79.6946 17.3016C78.5728 17.098 77.651 16.9308 77.651 16.2108C77.651 15.5926 78.1874 15.1762 79.0964 15.1762C80.1146 15.1762 80.7164 15.5998 80.7274 16.458H83.4984C83.4874 14.2998 81.7764 12.8488 79.1692 12.8488C76.562 12.8488 74.8238 14.2598 74.8238 16.3034C74.8238 18.8488 77.0184 19.3106 78.7438 19.5978C79.8856 19.7886 80.822 20.0122 80.822 20.7504C80.822 21.4722 80.0966 21.8394 79.2858 21.8394C78.2386 21.8394 77.5022 21.3594 77.4876 20.3976H74.6404C74.655 22.7122 76.466 24.2594 79.1768 24.2594L79.1766 24.26Z" fill="#212121"/>
<path d="M96.3238 18.5164C96.3238 15.4054 94.0492 12.849 90.7328 12.849C87.5274 12.849 85.131 15.3018 85.131 18.5546C85.131 21.791 87.5438 24.26 90.7328 24.26C93.24 24.26 95.3072 22.76 96.0926 20.4054H93.0236C92.58 21.1782 91.7472 21.6582 90.7326 21.6582C89.3162 21.6582 88.3472 20.8466 88.0934 19.3726H96.2672C96.3036 19.0872 96.3236 18.8018 96.3236 18.5164H96.3238ZM90.7326 15.3418C92.043 15.3418 92.9912 16.0578 93.404 17.3782H88.1704C88.5096 16.1 89.4326 15.3418 90.7326 15.3418Z" fill="#212121"/>
<path d="M104.551 12.8982C103.081 12.8982 101.79 13.516 100.973 14.4896L100.404 13.1546H98.4002V23.9546H101.32V18.2782C101.32 16.5402 102.238 15.462 103.744 15.462C105.007 15.462 105.627 16.2492 105.627 17.882V23.9546H108.547V17.4092C108.547 14.6746 107.013 12.8982 104.551 12.8982Z" fill="#212121"/>
<path d="M116.5 21.3546C115.437 21.3546 114.837 20.7546 114.837 19.711V15.502H117.767V13.1546H114.787V10.3364H114.229L109.964 14.871V15.502H111.917V20.0982C111.917 22.4946 113.377 23.9546 115.753 23.9546H117.827V21.3546H116.5Z" fill="#212121"/>
<path d="M128.637 13.1382L128.325 14.1702C127.391 13.3378 126.163 12.8492 124.776 12.8492C121.527 12.8492 119.111 15.282 119.111 18.5384C119.111 21.8074 121.527 24.2602 124.776 24.2602C126.139 24.2602 127.349 23.7842 128.276 22.9722L128.527 23.9384H130.816V13.1384L128.637 13.1382ZM125.014 21.4984C123.318 21.4984 122.071 20.2312 122.071 18.5384C122.071 16.8456 123.318 15.5784 125.014 15.5784C126.711 15.5784 127.954 16.842 127.954 18.5384C127.954 20.2348 126.711 21.4984 125.014 21.4984Z" fill="#212121"/>
<path d="M138.9 21.3546C137.837 21.3546 137.237 20.7546 137.237 19.711V15.502H140.167V13.1546H137.187V10.3364H136.629L132.364 14.871V15.502H134.317V20.0982C134.317 22.4946 135.777 23.9546 138.153 23.9546H140.227V21.3546H138.9Z" fill="#212121"/>
<path d="M142.226 11.7146H145.135V9H142.226V11.7146ZM142.22 23.9546H145.14V13.1546H142.22V23.9546Z" fill="#212121"/>
<path d="M153.069 24.26C156.398 24.26 158.908 21.811 158.908 18.5546C158.908 15.2818 156.398 12.849 153.069 12.849C149.724 12.849 147.231 15.2782 147.231 18.5546C147.231 21.811 149.724 24.26 153.069 24.26ZM153.069 21.5146C151.386 21.5146 150.191 20.3038 150.191 18.5546C150.191 16.8056 151.386 15.5946 153.069 15.5946C154.753 15.5946 155.948 16.8056 155.948 18.5546C155.948 20.3038 154.753 21.5146 153.069 21.5146Z" fill="#212121"/>
<path d="M167.151 12.8982C165.681 12.8982 164.39 13.516 163.573 14.4896L163.004 13.1546H161V23.9546H163.92V18.2782C163.92 16.5402 164.838 15.462 166.344 15.462C167.607 15.462 168.227 16.2492 168.227 17.882V23.9546H171.147V17.4092C171.147 14.6746 169.613 12.8982 167.151 12.8982Z" fill="#212121"/>
<path d="M177.657 24.26C180.384 24.26 182.186 22.8254 182.186 20.6218C182.186 17.9908 179.936 17.618 178.175 17.3016C177.053 17.098 176.131 16.9308 176.131 16.2108C176.131 15.5926 176.667 15.1762 177.576 15.1762C178.595 15.1762 179.196 15.5998 179.207 16.458H181.978C181.967 14.2998 180.256 12.8488 177.649 12.8488C175.042 12.8488 173.304 14.2598 173.304 16.3034C173.304 18.8488 175.498 19.3106 177.224 19.5978C178.366 19.7886 179.302 20.0122 179.302 20.7504C179.302 21.4722 178.577 21.8394 177.766 21.8394C176.719 21.8394 175.982 21.3594 175.968 20.3976H173.12C173.135 22.7122 174.946 24.2594 177.657 24.2594L177.657 24.26Z" fill="#212121"/>
<path fill-rule="evenodd" clip-rule="evenodd" d="M201.598 11.9546C202.703 11.9546 203.598 12.85 203.598 13.9546V21.9546C203.598 23.0592 202.703 23.9546 201.598 23.9546L190.598 23.9556C190.598 23.9553 190.598 23.9549 190.598 23.9546C190.598 22.2977 189.255 20.9546 187.598 20.9546V13.9546C187.598 12.85 188.494 11.9546 189.598 11.9546H201.598ZM195.208 14.4546H193.778L191.035 21.4546H192.642L193.122 20.1274H195.908L196.397 21.4546H198.04L195.208 14.4546ZM200.444 14.4546H198.929V21.4546H200.444V14.4546ZM194.508 16.3045L195.432 18.8074H193.595L194.508 16.3045Z" fill="#212121"/>
<path d="M187.598 25.9546C188.703 25.9546 189.598 25.0592 189.598 23.9546C189.598 22.85 188.703 21.9546 187.598 21.9546C186.494 21.9546 185.598 22.85 185.598 23.9546C185.598 25.0592 186.494 25.9546 187.598 25.9546Z" fill="#212121"/>
<defs>
<linearGradient id="paint0_linear_2200_58157" x1="38" y1="4.1061e-07" x2="3" y2="30.5" gradientUnits="userSpaceOnUse">
<stop stop-color="#3FE1B0"/>
<stop offset="0.406" stop-color="#00B3F4"/>
<stop offset="0.421" stop-color="#03B0F4"/>
<stop offset="0.818" stop-color="#5561E9"/>
<stop offset="1" stop-color="#7542E5"/>
</linearGradient>
<clipPath id="clip0_2200_58157">
<rect width="36" height="36" fill="white"/>
</clipPath>
</defs>
</svg>
