<svg width="200" height="30" viewBox="0 0 200 30" fill="none" xmlns="http://www.w3.org/2000/svg">
<path fill-rule="evenodd" clip-rule="evenodd" d="M8.42232 0.611331C12.7696 -0.203777 17.2304 -0.203777 21.5777 0.611331C25.5431 1.35485 28.6452 4.45689 29.3887 8.42232C30.2038 12.7696 30.2038 17.2304 29.3887 21.5777C28.6452 25.5431 25.5431 28.6452 21.5777 29.3887C17.2304 30.2038 12.7696 30.2038 8.42232 29.3887C4.45689 28.6452 1.35485 25.5431 0.611331 21.5777C-0.203777 17.2304 -0.203777 12.7696 0.611331 8.42232C1.35485 4.45689 4.45689 1.35485 8.42232 0.611331Z" fill="url(#paint0_linear_1833_28429)"/>
<path d="M12 16H11C9.89543 16 9 16.8954 9 18V21.5C9 22.3284 9.67157 23 10.5 23C11.3284 23 12 22.3284 12 21.5V11.5C12 9.01472 14.0147 7 16.5 7C18.9853 7 21 9.01472 21 11.5C21 13.9853 18.9853 16 16.5 16H15" stroke="white" stroke-width="2" stroke-linecap="round"/>
<path d="M40.8912 9.84903C39.544 9.84903 38.3466 10.3238 37.4296 11.1362L36.931 10.1544H35V24.8472H37.92V20.367C38.7572 20.9462 39.7724 21.2762 40.8908 21.2762C44.1436 21.2762 46.549 18.8234 46.549 15.5542C46.549 12.2814 44.1436 9.84863 40.8908 9.84863L40.8912 9.84903ZM40.6526 18.514C38.9562 18.514 37.709 17.2468 37.709 15.554C37.709 13.8612 38.9562 12.594 40.6526 12.594C42.349 12.594 43.5926 13.8576 43.5926 15.554C43.5926 17.2504 42.349 18.514 40.6526 18.514Z" fill="white"/>
<path d="M54.1637 10.0947C52.7765 10.0947 51.8007 10.5229 51.0317 11.4779L50.5127 10.1547H48.6401V20.9547H51.5601V15.3439C51.5601 13.5783 52.2109 12.8493 53.8565 12.8493H55.1237V10.0947H54.1637Z" fill="white"/>
<path d="M67.2638 15.516C67.2638 12.405 64.9892 9.84863 61.6728 9.84863C58.4674 9.84863 56.071 12.3014 56.071 15.5542C56.071 18.7906 58.4838 21.2596 61.6728 21.2596C64.18 21.2596 66.2472 19.7596 67.0326 17.405H63.9636C63.52 18.1778 62.6872 18.6578 61.6726 18.6578C60.2562 18.6578 59.2872 17.8462 59.0334 16.3722H67.2072C67.2436 16.0868 67.2636 15.8014 67.2636 15.516H67.2638ZM61.6726 12.3414C62.983 12.3414 63.9312 13.0574 64.344 14.3778H59.1104C59.4496 13.0996 60.3726 12.3414 61.6726 12.3414Z" fill="white"/>
<path d="M73.1766 21.2598C75.9038 21.2598 77.7056 19.8252 77.7056 17.6216C77.7056 14.9906 75.4564 14.6178 73.6946 14.3014C72.5728 14.0978 71.651 13.9306 71.651 13.2106C71.651 12.5924 72.1874 12.176 73.0964 12.176C74.1146 12.176 74.7164 12.5996 74.7274 13.4578H77.4984C77.4874 11.2996 75.7764 9.84863 73.1692 9.84863C70.562 9.84863 68.8238 11.2596 68.8238 13.3032C68.8238 15.8486 71.0184 16.3104 72.7438 16.5976C73.8856 16.7884 74.822 17.012 74.822 17.7502C74.822 18.472 74.0966 18.8392 73.2858 18.8392C72.2386 18.8392 71.5022 18.3592 71.4876 17.3974H68.6404C68.655 19.712 70.466 21.2592 73.1768 21.2592L73.1766 21.2598Z" fill="white"/>
<path d="M90.3239 15.516C90.3239 12.405 88.0493 9.84863 84.7329 9.84863C81.5275 9.84863 79.1311 12.3014 79.1311 15.5542C79.1311 18.7906 81.5439 21.2596 84.7329 21.2596C87.2401 21.2596 89.3073 19.7596 90.0927 17.405H87.0237C86.5801 18.1778 85.7473 18.6578 84.7327 18.6578C83.3163 18.6578 82.3473 17.8462 82.0935 16.3722H90.2673C90.3037 16.0868 90.3237 15.8014 90.3237 15.516H90.3239ZM84.7327 12.3414C86.0431 12.3414 86.9913 13.0574 87.4041 14.3778H82.1705C82.5097 13.0996 83.4327 12.3414 84.7327 12.3414Z" fill="white"/>
<path d="M98.5509 9.89844C97.0811 9.89844 95.7901 10.5162 94.9729 11.4898L94.4037 10.1548H92.4001V20.9548H95.3201V15.2784C95.3201 13.5404 96.2383 12.4622 97.7437 12.4622C99.0073 12.4622 99.6273 13.2494 99.6273 14.8822V20.9548H102.547V14.4094C102.547 11.6748 101.013 9.89844 98.5509 9.89844Z" fill="white"/>
<path d="M110.5 18.3541C109.437 18.3541 108.837 17.7541 108.837 16.7105V12.5015H111.767V10.1541H108.787V7.33594H108.229L103.964 11.8705V12.5015H105.917V17.0977C105.917 19.4941 107.377 20.9541 109.753 20.9541H111.827V18.3541H110.5Z" fill="white"/>
<path d="M122.637 10.1386L122.325 11.1706C121.391 10.3382 120.163 9.84961 118.776 9.84961C115.527 9.84961 113.111 12.2824 113.111 15.5388C113.111 18.8078 115.527 21.2606 118.776 21.2606C120.139 21.2606 121.349 20.7846 122.276 19.9726L122.527 20.9388H124.816V10.1388L122.637 10.1386ZM119.014 18.4988C117.318 18.4988 116.071 17.2316 116.071 15.5388C116.071 13.846 117.318 12.5788 119.014 12.5788C120.711 12.5788 121.954 13.8424 121.954 15.5388C121.954 17.2352 120.711 18.4988 119.014 18.4988Z" fill="white"/>
<path d="M132.9 18.3541C131.837 18.3541 131.237 17.7541 131.237 16.7105V12.5015H134.167V10.1541H131.187V7.33594H130.629L126.364 11.8705V12.5015H128.317V17.0977C128.317 19.4941 129.777 20.9541 132.153 20.9541H134.227V18.3541H132.9Z" fill="white"/>
<path d="M136.226 8.7146H139.135V6H136.226V8.7146ZM136.22 20.9546H139.14V10.1546H136.22V20.9546Z" fill="white"/>
<path d="M147.069 21.2596C150.398 21.2596 152.908 18.8106 152.908 15.5542C152.908 12.2814 150.398 9.84863 147.069 9.84863C143.724 9.84863 141.231 12.2778 141.231 15.5542C141.231 18.8106 143.724 21.2596 147.069 21.2596ZM147.069 18.5142C145.386 18.5142 144.191 17.3034 144.191 15.5542C144.191 13.8052 145.386 12.5942 147.069 12.5942C148.753 12.5942 149.948 13.8052 149.948 15.5542C149.948 17.3034 148.753 18.5142 147.069 18.5142Z" fill="white"/>
<path d="M161.151 9.89844C159.681 9.89844 158.39 10.5162 157.573 11.4898L157.004 10.1548H155V20.9548H157.92V15.2784C157.92 13.5404 158.838 12.4622 160.344 12.4622C161.607 12.4622 162.227 13.2494 162.227 14.8822V20.9548H165.147V14.4094C165.147 11.6748 163.613 9.89844 161.151 9.89844Z" fill="white"/>
<path d="M171.657 21.2598C174.384 21.2598 176.186 19.8252 176.186 17.6216C176.186 14.9906 173.936 14.6178 172.175 14.3014C171.053 14.0978 170.131 13.9306 170.131 13.2106C170.131 12.5924 170.667 12.176 171.576 12.176C172.595 12.176 173.196 12.5996 173.207 13.4578H175.978C175.967 11.2996 174.256 9.84863 171.649 9.84863C169.042 9.84863 167.304 11.2596 167.304 13.3032C167.304 15.8486 169.498 16.3104 171.224 16.5976C172.366 16.7884 173.302 17.012 173.302 17.7502C173.302 18.472 172.577 18.8392 171.766 18.8392C170.719 18.8392 169.982 18.3592 169.968 17.3974H167.12C167.135 19.712 168.946 21.2592 171.657 21.2592L171.657 21.2598Z" fill="white"/>
<path fill-rule="evenodd" clip-rule="evenodd" d="M195.598 8.95508C196.703 8.95508 197.598 9.85051 197.598 10.9551V18.9551C197.598 20.0596 196.703 20.9551 195.598 20.9551L184.598 20.9561C184.598 20.9557 184.598 20.9554 184.598 20.9551C184.598 19.2982 183.255 17.9551 181.598 17.9551V10.9551C181.598 9.85051 182.494 8.95508 183.598 8.95508H195.598ZM189.208 11.4551H187.778L185.035 18.4551H186.642L187.122 17.1279H189.908L190.397 18.4551H192.04L189.208 11.4551ZM194.444 11.4551H192.929V18.4551H194.444V11.4551ZM188.508 13.305L189.432 15.8079H187.595L188.508 13.305Z" fill="white"/>
<path d="M181.598 22.9551C182.703 22.9551 183.598 22.0596 183.598 20.9551C183.598 19.8505 182.703 18.9551 181.598 18.9551C180.494 18.9551 179.598 19.8505 179.598 20.9551C179.598 22.0596 180.494 22.9551 181.598 22.9551Z" fill="white"/>
<defs>
<linearGradient id="paint0_linear_1833_28429" x1="31.6667" y1="3.42175e-07" x2="2.5" y2="25.4167" gradientUnits="userSpaceOnUse">
<stop stop-color="#3FE1B0"/>
<stop offset="0.406" stop-color="#00B3F4"/>
<stop offset="0.421" stop-color="#03B0F4"/>
<stop offset="0.818" stop-color="#5561E9"/>
<stop offset="1" stop-color="#7542E5"/>
</linearGradient>
</defs>
</svg>
