<svg width="32" height="32" viewBox="0 0 32 32" fill="none" xmlns="http://www.w3.org/2000/svg">
<g id="mt_presentation_active">
<path id="Subtract" fill-rule="evenodd" clip-rule="evenodd" d="M16.4437 23.3344L16.3033 23.2597C16.2063 23.22 16.1034 23.2001 16.0004 23.2H25.5999L25.831 23.189C27.0481 23.0727 27.9999 22.0475 27.9999 20.8V5.6H28.7999L28.9437 5.58711C29.3169 5.51937 29.5999 5.19274 29.5999 4.8C29.5999 4.35817 29.2417 4 28.7999 4H3.1999L3.0561 4.01289C2.6829 4.08063 2.3999 4.40726 2.3999 4.8C2.3999 5.24183 2.75807 5.6 3.1999 5.6H3.9999V20.8C3.9999 22.1255 5.07442 23.2 6.3999 23.2H16.0004C15.8459 23.2001 15.6903 23.2449 15.5561 23.3344L10.7561 26.5344L10.6436 26.6249C10.3707 26.8882 10.3164 27.317 10.5343 27.6438L10.6248 27.7563C10.8881 28.0292 11.3169 28.0835 11.6437 27.8656L15.9999 24.9616L20.3561 27.8656L20.4829 27.9347C20.831 28.0853 21.2477 27.9705 21.4655 27.6438C21.7106 27.2761 21.6113 26.7794 21.2437 26.5344L16.4437 23.3344ZM22.9872 12.5434C23.2451 12.2653 23.2755 11.8342 23.0399 11.52C23.0068 11.4758 22.9699 11.436 22.9302 11.4008C22.6518 11.1539 22.2292 11.128 21.9199 11.36L18.1327 14.2L14.3466 11.36L14.2188 11.2816C14.1855 11.2653 14.1513 11.2514 14.1166 11.24C13.8732 11.16 13.5999 11.2 13.3866 11.36L9.1199 14.56L9.01259 14.6566C8.75468 14.9347 8.72426 15.3658 8.9599 15.68L9.05649 15.7873C9.3346 16.0452 9.76571 16.0756 10.0799 15.84L13.8655 13L17.6532 15.84L17.781 15.9184C18.0472 16.049 18.3694 16.0229 18.6132 15.84L22.8799 12.64L22.9872 12.5434Z" fill="white"/>
</g>
</svg>
