<svg width="44" height="44" viewBox="0 0 44 44" fill="none" xmlns="http://www.w3.org/2000/svg">
<g clip-path="url(#clip0_1507_30067)">
<path d="M24.75 2.75C19.6492 2.76487 14.7615 4.79777 11.1546 8.40462C7.54777 12.0115 5.51487 16.8992 5.5 22L29.8884 27.1384L24.75 2.75Z" fill="#ED6C47"/>
<path d="M24.75 2.75C29.8508 2.76487 34.7385 4.79777 38.3454 8.40462C41.9522 12.0115 43.9851 16.8992 44 22L34.375 28.5423L24.75 22V2.75Z" fill="#FF8F6B"/>
<path d="M24.75 41.25C29.8508 41.2351 34.7385 39.2022 38.3454 35.5954C41.9522 31.9885 43.9851 27.1008 44 22H5.5C5.51487 27.1008 7.54777 31.9885 11.1546 35.5954C14.7615 39.2022 19.6492 41.2351 24.75 41.25Z" fill="#D35230"/>
<path opacity="0.1" d="M22.9158 9.625H10.0458C6.90263 13.3284 5.28583 18.0886 5.5233 22.9402C5.76077 27.7917 7.83473 32.3713 11.3245 35.75H22.9158C23.4017 35.7489 23.8674 35.5555 24.2111 35.212C24.5548 34.8686 24.7485 34.403 24.75 33.9171V11.4579C24.7485 10.972 24.5548 10.5064 24.2111 10.163C23.8674 9.8195 23.4017 9.62609 22.9158 9.625Z" fill="black"/>
<path opacity="0.2" d="M21.5407 11H8.99247C6.15816 15.0216 4.98311 19.9809 5.71169 24.8466C6.44027 29.7124 9.01641 34.11 12.9044 37.125H21.5421C22.0278 37.1236 22.4931 36.93 22.8365 36.5866C23.18 36.2432 23.3735 35.7778 23.375 35.2921V12.8329C23.3735 12.347 23.1798 11.8814 22.836 11.538C22.4923 11.1945 22.0266 11.0011 21.5407 11Z" fill="black"/>
<path opacity="0.2" d="M21.5407 11H8.99244C6.55106 14.4614 5.32964 18.6362 5.52031 22.8677C5.71097 27.0992 7.30291 31.1472 10.0457 34.375H21.5421C22.0277 34.3736 22.4931 34.18 22.8365 33.8366C23.1799 33.4932 23.3735 33.0278 23.3749 32.5421V12.8329C23.3735 12.347 23.1797 11.8814 22.836 11.538C22.4923 11.1945 22.0266 11.0011 21.5407 11Z" fill="black"/>
<path opacity="0.2" d="M20.1657 11H8.99244C6.55106 14.4614 5.32964 18.6362 5.52031 22.8677C5.71097 27.0992 7.30291 31.1472 10.0457 34.375H20.1671C20.6527 34.3736 21.1181 34.18 21.4615 33.8366C21.8049 33.4932 21.9985 33.0278 21.9999 32.5421V12.8329C21.9985 12.347 21.8047 11.8814 21.461 11.538C21.1173 11.1945 20.6516 11.0011 20.1657 11Z" fill="black"/>
<path d="M1.83287 11H20.1671C20.6532 11 21.1194 11.1931 21.4632 11.5368C21.8069 11.8806 22 12.3468 22 12.8329V31.1671C22 31.6532 21.8069 32.1194 21.4632 32.4632C21.1194 32.8069 20.6532 33 20.1671 33H1.83287C1.34677 33 0.880567 32.8069 0.536837 32.4632C0.193106 32.1194 0 31.6532 0 31.1671L0 12.8329C0 12.3468 0.193106 11.8806 0.536837 11.5368C0.880567 11.1931 1.34677 11 1.83287 11Z" fill="#C43E1C"/>
<path d="M10.9959 15.125C12.3498 15.0339 13.6922 15.4261 14.784 16.2319C15.2318 16.6315 15.5829 17.1277 15.8106 17.683C16.0383 18.2383 16.1368 18.8381 16.0985 19.437C16.1135 20.2147 15.8862 20.9778 15.4481 21.6205C15.0022 22.3309 14.3604 22.8972 13.6001 23.2513C12.7309 23.6549 11.7808 23.8543 10.8226 23.8343H8.19637V28.875H5.5V15.125H10.9959ZM8.195 21.5641H10.5146C11.2501 21.6182 11.9799 21.401 12.5661 20.9536C12.7991 20.8038 12.9867 20.5932 13.1088 20.3446C13.2309 20.096 13.2829 19.8188 13.2591 19.5429C13.2591 18.0221 12.3732 17.2618 10.6012 17.2618H8.195V21.5641Z" fill="#F9F7F7"/>
</g>
<defs>
<clipPath id="clip0_1507_30067">
<rect width="44" height="44" fill="white"/>
</clipPath>
</defs>
</svg>
