<svg width="32" height="32" viewBox="0 0 32 32" fill="none" xmlns="http://www.w3.org/2000/svg">
<mask id="path-1-outside-1_9070_65732" maskUnits="userSpaceOnUse" x="3" y="3" width="26" height="26" fill="black">
<rect fill="white" x="3" y="3" width="26" height="26"/>
<path fill-rule="evenodd" clip-rule="evenodd" d="M15 7C15 5.89543 14.1046 5 13 5L7 5C5.89543 5 5 5.89543 5 7L5 13C5 14.1046 5.89543 15 7 15L13 15C14.1046 15 15 14.1046 15 13L15 7ZM15 19C15 17.8954 14.1046 17 13 17H7C5.89543 17 5 17.8954 5 19L5 25C5 26.1046 5.89543 27 7 27H13C14.1046 27 15 26.1046 15 25L15 19ZM17 7C17 5.89543 17.8954 5 19 5L25 5C26.1046 5 27 5.89543 27 7V13C27 14.1046 26.1046 15 25 15L19 15C17.8954 15 17 14.1046 17 13V7ZM27 19C27 17.8954 26.1046 17 25 17L19 17C17.8954 17 17 17.8954 17 19L17 25C17 26.1046 17.8954 27 19 27H25C26.1046 27 27 26.1046 27 25V19Z"/>
</mask>
<path fill-rule="evenodd" clip-rule="evenodd" d="M15 7C15 5.89543 14.1046 5 13 5L7 5C5.89543 5 5 5.89543 5 7L5 13C5 14.1046 5.89543 15 7 15L13 15C14.1046 15 15 14.1046 15 13L15 7ZM15 19C15 17.8954 14.1046 17 13 17H7C5.89543 17 5 17.8954 5 19L5 25C5 26.1046 5.89543 27 7 27H13C14.1046 27 15 26.1046 15 25L15 19ZM17 7C17 5.89543 17.8954 5 19 5L25 5C26.1046 5 27 5.89543 27 7V13C27 14.1046 26.1046 15 25 15L19 15C17.8954 15 17 14.1046 17 13V7ZM27 19C27 17.8954 26.1046 17 25 17L19 17C17.8954 17 17 17.8954 17 19L17 25C17 26.1046 17.8954 27 19 27H25C26.1046 27 27 26.1046 27 25V19Z" fill="white"/>
<path d="M7 7L13 7V3L7 3V7ZM7 13L7 7H3L3 13H7ZM13 13L7 13V17H13L13 13ZM13 7V13H17V7H13ZM7 19H13L13 15L7 15V19ZM7 25L7 19H3L3 25H7ZM13 25H7V29H13V25ZM13 19V25L17 25L17 19H13ZM25 3L19 3V7L25 7V3ZM29 13V7H25V13H29ZM19 17L25 17L25 13L19 13V17ZM15 7L15 13H19V7H15ZM19 19L25 19L25 15L19 15V19ZM19 25L19 19H15L15 25L19 25ZM25 25H19V29H25V25ZM25 19V25H29V19H25ZM25 29C27.2091 29 29 27.2091 29 25H25V29ZM15 25C15 27.2091 16.7909 29 19 29V25L15 25ZM25 19H29C29 16.7909 27.2091 15 25 15L25 19ZM19 15C16.7909 15 15 16.7909 15 19H19V15ZM19 13H15C15 15.2091 16.7909 17 19 17V13ZM25 13L25 17C27.2091 17 29 15.2091 29 13H25ZM19 3C16.7909 3 15 4.79086 15 7H19V3ZM25 7V7H29C29 4.79086 27.2091 3 25 3V7ZM13 29C15.2091 29 17 27.2091 17 25L13 25V29ZM3 25C3 27.2091 4.79086 29 7 29V25H7H3ZM13 19H17C17 16.7909 15.2091 15 13 15L13 19ZM7 15C4.79086 15 3 16.7909 3 19H7V15ZM13 17C15.2091 17 17 15.2091 17 13H13L13 17ZM3 13C3 15.2091 4.79086 17 7 17V13H7H3ZM13 7H17C17 4.79086 15.2091 3 13 3V7ZM7 3C4.79086 3 3 4.79086 3 7H7V7V3Z" fill="black" fill-opacity="0.15" mask="url(#path-1-outside-1_9070_65732)"/>
</svg>
