<svg width="32" height="32" viewBox="0 0 32 32" fill="none" xmlns="http://www.w3.org/2000/svg">
<mask id="path-1-outside-1_9070_65741" maskUnits="userSpaceOnUse" x="3" y="3" width="26" height="26" fill="black">
<rect fill="white" x="3" y="3" width="26" height="26"/>
<path fill-rule="evenodd" clip-rule="evenodd" d="M9 14L9 9L14 9L14 5L5 5L5 14L9 14ZM9 18L9 23H14L14 27H5L5 18L9 18ZM23 9.00001V14H27V5.00001L18 5.00001L18 9.00001L23 9.00001ZM23 18V23H18L18 27H27V18H23Z"/>
</mask>
<path fill-rule="evenodd" clip-rule="evenodd" d="M9 14L9 9L14 9L14 5L5 5L5 14L9 14ZM9 18L9 23H14L14 27H5L5 18L9 18ZM23 9.00001V14H27V5.00001L18 5.00001L18 9.00001L23 9.00001ZM23 18V23H18L18 27H27V18H23Z" fill="white"/>
<path d="M9 9V7L7 7L7 9H9ZM9 14L9 16H11V14L9 14ZM14 9L14 11H16L16 9L14 9ZM14 5L16 5V3H14V5ZM5 5V3L3 3V5H5ZM5 14H3L3 16H5L5 14ZM9 23H7L7 25H9V23ZM9 18H11V16H9L9 18ZM14 23H16L16 21H14L14 23ZM14 27V29H16V27H14ZM5 27H3L3 29H5V27ZM5 18L5 16H3L3 18H5ZM23 14L21 14V16L23 16V14ZM23 9.00001H25V7.00001L23 7.00001V9.00001ZM27 14V16H29V14H27ZM27 5.00001H29V3.00001L27 3.00001V5.00001ZM18 5.00001V3.00001L16 3.00001V5.00001L18 5.00001ZM18 9.00001L16 9.00001V11H18V9.00001ZM23 23V25H25V23H23ZM23 18L23 16L21 16L21 18L23 18ZM18 23L18 21L16 21L16 23L18 23ZM18 27L16 27L16 29L18 29V27ZM27 27V29H29V27H27ZM27 18H29L29 16H27L27 18ZM7 9L7 14L11 14L11 9H7ZM14 7L9 7V11L14 11L14 7ZM12 5L12 9L16 9L16 5L12 5ZM5 7L14 7V3L5 3V7ZM7 14L7 5H3L3 14H7ZM9 12L5 12L5 16L9 16L9 12ZM11 23L11 18H7L7 23H11ZM14 21H9V25H14L14 21ZM16 27L16 23H12L12 27H16ZM5 29H14V25H5V29ZM3 18L3 27H7L7 18H3ZM9 16L5 16L5 20L9 20L9 16ZM25 14V9.00001H21V14L25 14ZM27 12H23V16H27V12ZM25 5.00001V14H29V5.00001H25ZM18 7.00001L27 7.00001V3.00001L18 3.00001V7.00001ZM20 9.00001L20 5.00001L16 5.00001L16 9.00001L20 9.00001ZM23 7.00001L18 7.00001V11L23 11V7.00001ZM25 23V18L21 18V23H25ZM18 25H23V21H18L18 25ZM20 27L20 23L16 23L16 27L20 27ZM27 25H18V29H27V25ZM25 18V27H29V18H25ZM23 20H27L27 16H23L23 20Z" fill="black" fill-opacity="0.15" mask="url(#path-1-outside-1_9070_65741)"/>
</svg>
