<svg width="32" height="32" viewBox="0 0 32 32" fill="none" xmlns="http://www.w3.org/2000/svg">
<path d="M16.7731 5C18.0765 5 19.1068 5.9376 19.2233 7.25033L19.2319 7.45882C19.2319 7.87582 19.5 8.31449 19.9095 8.56243C19.9441 8.57972 19.9756 8.59608 20.0059 8.61262L20.1904 8.72315L20.4597 8.89807L20.7621 9.07805C21.0268 9.2132 21.395 9.21094 21.7231 9.05551L22.0716 8.87111C23.2472 8.31028 24.5698 8.70179 25.2221 9.84356L26.0055 11.1496C26.6544 12.2852 26.3806 13.6176 25.3056 14.3728L25.086 14.5082C24.6096 14.7464 24.4084 15.1085 24.4084 15.6118V16.2588C24.4084 16.7055 24.5706 17.073 24.861 17.2919L24.9882 17.3794C26.1974 18.0703 26.5922 19.6496 25.8691 20.7329L25.0996 22.0151C24.4563 23.1409 23.0353 23.57 21.9013 22.9872L21.7461 22.896C21.3795 22.6761 20.9947 22.6953 20.3781 22.942L20.4745 22.9054L20.3819 22.9772C20.3014 23.0327 20.2063 23.088 20.0798 23.1551L19.9422 23.2264L19.8792 23.2574L19.785 23.3563C19.483 23.6828 19.3252 23.9414 19.2648 24.2118L19.2425 24.3484L19.2319 24.5412C19.2319 25.9338 18.1658 27 16.7731 27H15.2202C13.9167 27 12.8865 26.0624 12.7699 24.7497L12.7516 24.4017C12.7 24.0291 12.4478 23.658 12.0837 23.4376C12.0492 23.4203 12.0177 23.4039 11.9874 23.3874L11.8029 23.2769L11.5336 23.1019L11.3378 22.9882C11.0725 22.7893 10.6452 22.7669 10.2702 22.9445L9.92162 23.1289C8.74602 23.6897 7.42347 23.2982 6.77119 22.1564L5.98777 20.8504C5.33882 19.7148 5.61261 18.3824 6.68766 17.6272L6.90726 17.4918C7.38366 17.2536 7.58487 16.8915 7.58487 16.3882V15.7412C7.58487 15.2945 7.42263 14.927 7.13226 14.7081L6.94995 14.5854C5.78027 13.7499 5.43058 12.3511 6.12413 11.1377L6.89365 9.85544C7.54066 8.72318 8.83763 8.3151 10.0388 8.86592L10.3703 9.03904C10.7021 9.18742 11.0671 9.14786 11.6151 8.92863L11.5153 8.96518L11.5815 8.91419C11.6791 8.84339 11.7915 8.78018 11.9454 8.70433L12.1143 8.62353C12.5078 8.32836 12.712 8.01752 12.7508 7.65147L12.7685 7.26217C12.8636 5.96705 13.8938 5 15.2202 5H16.7731ZM13.279 13.2824C11.726 14.8353 11.726 17.1647 13.279 18.7176C14.8319 20.2706 17.1613 20.2706 18.7143 18.7176C20.2672 17.1647 20.2672 14.8353 18.7143 13.2824C17.1613 11.7294 14.8319 11.7294 13.279 13.2824Z" fill="white"/>
<path d="M20.2225 7.20919L20.2215 7.1855L20.2194 7.16189C20.0571 5.33395 18.5953 4 16.7731 4H15.2202C13.3717 4 11.9048 5.36958 11.7712 7.18894L11.7702 7.20279L11.7695 7.21666L11.7538 7.5626C11.7506 7.57737 11.7441 7.59316 11.7292 7.61598C11.7088 7.64712 11.6668 7.69898 11.583 7.76915L11.5137 7.80231L11.5137 7.80226L11.5036 7.80726C11.343 7.88635 11.1865 7.97051 11.0348 8.07595C10.9298 8.10929 10.8616 8.12203 10.8189 8.126C10.8041 8.12738 10.7942 8.12751 10.7882 8.12738C10.7869 8.12735 10.7857 8.1273 10.7846 8.12725L10.5017 7.9795L10.479 7.96762L10.4557 7.95693C8.79723 7.19646 6.94247 7.76566 6.03113 9.34932L5.26669 10.6231L5.26122 10.6322L5.25594 10.6414C4.28805 12.3348 4.81441 14.2889 6.36871 15.3991L6.37997 15.4071L6.39144 15.4149L6.53494 15.5115C6.53512 15.5117 6.53529 15.5119 6.53547 15.5122C6.53865 15.5162 6.54476 15.5252 6.5518 15.5412C6.56604 15.5736 6.58487 15.6377 6.58487 15.7412V16.3882C6.58487 16.4479 6.57885 16.4844 6.57417 16.5037C6.57186 16.5132 6.56981 16.5189 6.56871 16.5216L6.56748 16.5244L6.56705 16.5252L6.56676 16.5256L6.56554 16.5272C6.56427 16.5287 6.56103 16.5323 6.55468 16.5379C6.54198 16.5491 6.51383 16.5705 6.46004 16.5974L6.42027 16.6173L6.38243 16.6406L6.16283 16.776L6.13736 16.7917L6.11287 16.8089C4.60205 17.8702 4.22263 19.777 5.11952 21.3466L5.12478 21.3558L5.13022 21.3649L5.9086 22.6624C6.82934 24.2627 8.71945 24.8104 10.3522 24.0314L10.3709 24.0225L10.3892 24.0128L10.7111 23.8426C10.727 23.836 10.7428 23.8313 10.7577 23.8282C10.7687 23.826 10.7784 23.8249 10.7863 23.8244L10.8356 23.853L11.0098 23.9542L11.2582 24.1155L11.2734 24.1254L11.289 24.1347L11.4735 24.2452L11.4907 24.2555L11.5083 24.2652C11.5351 24.2798 11.5617 24.2939 11.5887 24.3077C11.6905 24.3774 11.741 24.4691 11.7564 24.5189L11.7713 24.8023L11.7723 24.8202L11.7738 24.8381C11.9361 26.666 13.398 28 15.2202 28H16.7731C18.7082 28 20.2166 26.5014 20.2318 24.5707L20.2381 24.4566L20.245 24.4139C20.2576 24.3747 20.3027 24.275 20.4872 24.0702L20.5403 24.0427L20.5403 24.0428L20.548 24.0387C20.6894 23.9638 20.8232 23.8876 20.9497 23.8003L20.9575 23.795C21.0842 23.7547 21.1561 23.7447 21.193 23.7433C21.204 23.7429 21.2102 23.7434 21.2129 23.7437C21.2156 23.7447 21.2215 23.7475 21.2316 23.7535L21.2316 23.7536L21.2397 23.7583L21.3949 23.8495L21.4191 23.8637L21.4442 23.8766C23.0605 24.7073 25.0561 24.0945 25.962 22.5214L26.7154 21.2662C27.7551 19.6804 27.1617 17.4987 25.5234 16.5338L25.4592 16.4897C25.4588 16.4891 25.4583 16.4885 25.4578 16.4878C25.4546 16.4838 25.4485 16.4748 25.4415 16.4588C25.4272 16.4264 25.4084 16.3623 25.4084 16.2588V15.6118C25.4084 15.5521 25.4144 15.5156 25.4191 15.4963C25.4214 15.4868 25.4235 15.4811 25.4246 15.4784L25.4258 15.4756L25.4262 15.4748L25.4265 15.4744L25.4277 15.4728C25.429 15.4713 25.4322 15.4677 25.4386 15.4621C25.4513 15.4509 25.4794 15.4295 25.5332 15.4026L25.573 15.3827L25.6108 15.3594L25.8304 15.224L25.8559 15.2083L25.8804 15.1911C27.3912 14.1298 27.7706 12.223 26.8737 10.6534L26.8685 10.6442L26.863 10.6351L26.0847 9.33758C25.1639 7.73726 23.2738 7.18964 21.6411 7.96856L21.6224 7.97748L21.604 7.98717L21.2822 8.15743C21.251 8.17026 21.2223 8.1753 21.2016 8.17589L20.9879 8.04876L20.7351 7.88453L20.7199 7.87463L20.7043 7.8653L20.5198 7.75477L20.5026 7.74446L20.4849 7.73485C20.4583 7.7203 20.4317 7.70625 20.4049 7.69243C20.3484 7.65359 20.3014 7.60311 20.2697 7.55129C20.2363 7.49688 20.2324 7.46285 20.232 7.459C20.2319 7.45858 20.2319 7.45851 20.2319 7.45882V7.43824L20.2311 7.41768L20.2225 7.20919ZM13.9861 18.0105C12.8237 16.8481 12.8237 15.1519 13.9861 13.9895C15.1485 12.827 16.8448 12.827 18.0072 13.9895C19.1696 15.1519 19.1696 16.8481 18.0072 18.0105C16.8448 19.173 15.1485 19.173 13.9861 18.0105Z" stroke="black" stroke-opacity="0.15" stroke-width="2"/>
</svg>
