<svg width="32" height="32" viewBox="0 0 32 32" fill="none" xmlns="http://www.w3.org/2000/svg">
<path fill-rule="evenodd" clip-rule="evenodd" d="M22.4866 5.66209C21.7477 4.84107 20.4831 4.77451 19.6621 5.51343L9.66205 14.5134C9.24063 14.8927 8.99998 15.433 8.99998 16C8.99998 16.567 9.24063 17.1073 9.66205 17.4866L19.6621 26.4866C20.4831 27.2255 21.7477 27.159 22.4866 26.3379C23.2255 25.5169 23.1589 24.2523 22.3379 23.5134L13.9897 16L22.3379 8.48661C23.1589 7.74769 23.2255 6.48311 22.4866 5.66209Z" fill="white"/>
<path d="M23.0069 22.7701C24.2384 23.8785 24.3382 25.7754 23.2299 27.0069C22.1215 28.2384 20.2246 28.3383 18.9931 27.2299L8.99309 18.2299C8.36095 17.661 7.99998 16.8505 7.99998 16C7.99998 15.1496 8.36095 14.3391 8.99309 13.7701L18.9931 4.77013C20.2246 3.66176 22.1215 3.76159 23.2299 4.99312C24.3382 6.22465 24.2384 8.12152 23.0069 9.2299L15.4845 16L23.0069 22.7701ZM23.0069 22.7701L22.34 23.5111L23.0069 22.7701L23.0069 22.7701Z" stroke="black" stroke-opacity="0.15" stroke-width="2" stroke-linecap="round" stroke-linejoin="round"/>
</svg>
