<svg width="32" height="32" viewBox="0 0 32 32" fill="none" xmlns="http://www.w3.org/2000/svg">
<path d="M21.3033 9.98821C20.9128 9.59768 20.2796 9.59768 19.8891 9.98821L16 13.8773L12.1109 9.98821C11.7204 9.59768 11.0872 9.59768 10.6967 9.98821L9.9896 10.6953C9.59907 11.0858 9.59907 11.719 9.98959 12.1095L13.8787 15.9986L9.98959 19.8877C9.59907 20.2782 9.59907 20.9114 9.98959 21.3019L10.6967 22.009C11.0872 22.3995 11.7204 22.3995 12.1109 22.009L16 18.1199L19.8891 22.009C20.2796 22.3995 20.9128 22.3995 21.3033 22.009L22.0104 21.3019C22.4009 20.9114 22.4009 20.2782 22.0104 19.8877L18.1213 15.9986L22.0104 12.1095C22.4009 11.719 22.4009 11.0858 22.0104 10.6953L21.3033 9.98821Z" fill="white"/>
<path d="M22.0104 9.2811C21.2294 8.50005 19.963 8.50005 19.182 9.2811L16 12.4631L12.818 9.2811C12.037 8.50005 10.7706 8.50005 9.98959 9.2811L9.28249 9.98821C8.50144 10.7693 8.50144 12.0356 9.28249 12.8166L12.4645 15.9986L9.28249 19.1806C8.50144 19.9616 8.50144 21.228 9.28249 22.009L9.98959 22.7161C10.7706 23.4972 12.037 23.4972 12.818 22.7161L16 19.5341L19.182 22.7161C19.963 23.4972 21.2294 23.4972 22.0104 22.7161L22.7175 22.009C23.4986 21.228 23.4986 19.9616 22.7175 19.1806L19.5355 15.9986L22.7175 12.8166C23.4986 12.0356 23.4986 10.7693 22.7175 9.98821L22.0104 9.2811Z" stroke="black" stroke-opacity="0.15" stroke-width="2"/>
</svg>
