<svg width="32" height="32" viewBox="0 0 32 32" fill="none" xmlns="http://www.w3.org/2000/svg">
<path fill-rule="evenodd" clip-rule="evenodd" d="M9.51343 5.66209C10.2523 4.84107 11.5169 4.77451 12.3379 5.51343L22.3379 14.5134C22.7594 14.8927 23 15.433 23 16C23 16.567 22.7594 17.1073 22.3379 17.4866L12.3379 26.4866C11.5169 27.2255 10.2523 27.159 9.51343 26.3379C8.77451 25.5169 8.84107 24.2523 9.66209 23.5134L18.0103 16L9.66209 8.48661C8.84107 7.74769 8.77451 6.48311 9.51343 5.66209Z" fill="white"/>
<path d="M8.99312 22.7701C7.76159 23.8785 7.66176 25.7754 8.77013 27.0069C9.87851 28.2384 11.7754 28.3383 13.0069 27.2299L23.0069 18.2299C23.6391 17.661 24 16.8505 24 16C24 15.1496 23.6391 14.3391 23.0069 13.7701L13.0069 4.77013C11.7754 3.66176 9.87851 3.76159 8.77013 4.99312C7.66176 6.22465 7.76159 8.12152 8.99312 9.2299L16.5155 16L8.99312 22.7701ZM8.99312 22.7701L9.66001 23.5111L8.99312 22.7701L8.99312 22.7701Z" stroke="black" stroke-opacity="0.15" stroke-width="2" stroke-linecap="round" stroke-linejoin="round"/>
</svg>
